<?xml version="1.0" encoding="utf-8"?>
<!-- Generator: Adobe Illustrator 28.1.0, SVG Export Plug-In . SVG Version: 6.00 Build 0)  -->
<svg version="1.1"
	 id="svg5241" xmlns:dc="http://purl.org/dc/elements/1.1/" xmlns:inkscape="http://www.inkscape.org/namespaces/inkscape" xmlns:svg="http://www.w3.org/2000/svg" xmlns:sodipodi="http://sodipodi.sourceforge.net/DTD/sodipodi-0.dtd" xmlns:rdf="http://www.w3.org/1999/02/22-rdf-syntax-ns#" xmlns:cc="http://creativecommons.org/ns#" inkscape:export-xdpi="90"
	 xmlns="http://www.w3.org/2000/svg" xmlns:xlink="http://www.w3.org/1999/xlink" x="0px" y="0px" width="2000px" height="400px"
	 viewBox="0 0 2000 400" style="enable-background:new 0 0 2000 400;" xml:space="preserve">
<style type="text/css">
	.st0{fill:#FFFFFF;}
</style>
<sodipodi:namedview  bordercolor="#666666" borderopacity="1.0" id="base" inkscape:current-layer="text5298" inkscape:cx="774.9861" inkscape:cy="86.360425" inkscape:document-units="px" inkscape:pageopacity="1" inkscape:pageshadow="2" inkscape:window-height="723" inkscape:window-maximized="0" inkscape:window-width="1366" inkscape:window-x="0" inkscape:window-y="26" inkscape:zoom="0.70710678" pagecolor="#32322a" showgrid="false">
	</sodipodi:namedview>
<g>
	<g>
		<path class="st0" d="M84.909,157.402l-5.428,27.848h73.396l-6.844,34.929H72.402l-5.9,30.208h86.612l-7.552,36.107H13.165
			l33.04-165.2h129.328l-7.316,36.108H84.909z"/>
		<path class="st0" d="M204.561,111.382h44.84l-34.928,175.112h-44.84L204.561,111.382z"/>
		<path class="st0" d="M385.57,233.631h-93.928c1.571,13.846,11.247,20.768,29.028,20.768c5.664,0,11.169-0.863,16.52-2.596
			c5.347-1.729,10.148-4.326,14.396-7.788l18.644,28.084c-14.949,11.015-33.121,16.52-54.516,16.52
			c-13.533,0-25.451-2.396-35.754-7.198c-10.306-4.797-18.253-11.563-23.836-20.296c-5.586-8.731-8.378-18.998-8.378-30.798
			c0-14.001,3.264-26.627,9.794-37.878c6.527-11.247,15.654-20.06,27.376-26.432c11.719-6.372,25.134-9.558,40.238-9.558
			c12.744,0,23.873,2.323,33.394,6.962c9.517,4.643,16.833,11.21,21.948,19.706c5.111,8.496,7.67,18.331,7.67,29.5
			C388.166,218.762,387.299,225.764,385.57,233.631z M304.858,194.1c-4.879,3.857-8.419,9.167-10.62,15.93h52.628
			c0.155-6.763-1.969-12.073-6.372-15.93c-4.407-3.854-10.229-5.782-17.464-5.782C315.791,188.318,309.733,190.246,304.858,194.1z"
			/>
		<path class="st0" d="M430.052,281.42c-10.148-4.797-18.017-11.601-23.6-20.413c-5.586-8.81-8.378-19.035-8.378-30.681
			c0-14.001,3.381-26.587,10.148-37.76c6.763-11.169,16.203-19.979,28.32-26.432c12.114-6.45,25.724-9.676,40.828-9.676
			c14.474,0,26.981,3.031,37.524,9.086c10.539,6.059,18.25,14.595,23.128,25.606l-38.232,18.172
			c-4.72-11.328-12.98-16.992-24.78-16.992c-9.126,0-16.638,3.304-22.538,9.912c-5.9,6.608-8.85,15.104-8.85,25.488
			c0,7.552,2.161,13.57,6.49,18.054c4.325,4.484,10.502,6.727,18.526,6.727c5.978,0,11.247-1.335,15.812-4.013
			c4.562-2.673,8.496-6.921,11.8-12.744l32.804,19.824c-6.136,10.384-14.75,18.489-25.842,24.309
			c-11.092,5.822-23.64,8.731-37.642,8.731C452.037,288.618,440.2,286.221,430.052,281.42z"/>
		<path class="st0" d="M597.725,238.822c-0.317,2.205-0.472,3.621-0.472,4.248c0,7.238,3.931,10.856,11.8,10.856
			c4.248,0,8.732-1.258,13.452-3.776l5.664,30.916c-8.813,5.037-19.905,7.552-33.276,7.552c-13.216,0-23.718-3.304-31.506-9.912
			c-7.788-6.607-11.682-15.812-11.682-27.611c0-4.562,0.391-8.574,1.18-12.036l8.496-42.245h-18.88l6.844-33.512h18.644
			l6.608-33.276h44.84l-6.608,33.276h29.028l-6.608,33.512h-29.028L597.725,238.822z"/>
		<path class="st0" d="M755.135,156.458l-7.788,40.356c-3.935-0.472-7.316-0.708-10.148-0.708c-10.07,0-18.135,2.401-24.19,7.198
			c-6.059,4.801-10.111,12.39-12.154,22.774l-12.272,60.416h-44.84l25.488-127.912h42.48l-2.832,14.16
			C719.576,161.886,734.994,156.458,755.135,156.458z"/>
		<path class="st0" d="M908.298,158.582l-25.488,127.912h-42.48l2.596-13.216c-5.509,5.192-11.682,9.049-18.526,11.564
			c-6.844,2.515-13.887,3.775-21.122,3.775c-14.005,0-25.134-3.775-33.394-11.328c-8.26-7.552-12.39-18.326-12.39-32.332
			c0-5.191,0.549-10.461,1.652-15.812l14.16-70.564h44.84l-13.216,66.316c-0.63,2.99-0.944,5.9-0.944,8.732
			c0,11.173,5.741,16.756,17.228,16.756c7.707,0,14.079-2.397,19.116-7.198c5.034-4.798,8.496-11.918,10.384-21.358l12.744-63.248
			H908.298z"/>
		<path class="st0" d="M1133.201,167.786c8.179,7.552,12.272,18.253,12.272,32.096c0,5.192-0.554,10.465-1.652,15.812l-13.924,70.8
			h-44.84l13.216-66.08c0.627-2.986,0.944-5.978,0.944-8.968c0-5.664-1.38-9.912-4.131-12.744
			c-2.754-2.832-6.726-4.248-11.918-4.248c-14.318,0-23.363,9.204-27.14,27.612l-12.98,64.428H998.21l13.451-66.08
			c0.627-2.673,0.944-5.583,0.944-8.731c0-5.664-1.379-9.949-4.13-12.862c-2.755-2.91-6.726-4.366-11.918-4.366
			c-14.477,0-23.6,9.363-27.376,28.084l-12.744,63.956h-44.84l25.488-127.912h42.48l-2.596,12.98
			c10.539-10.067,23.282-15.104,38.231-15.104c8.496,0,16.126,1.77,22.893,5.31c6.763,3.54,11.954,8.695,15.575,15.458
			c5.978-6.763,12.939-11.918,20.887-15.458c7.942-3.54,16.638-5.31,26.078-5.31
			C1114.163,156.458,1125.019,160.234,1133.201,167.786z"/>
		<path class="st0" d="M1272.912,203.658l44.841,82.836h-50.505l-25.016-49.56l-43.188,49.56h-55.933l78.588-85.432l-42.244-79.768
			h49.797l24.071,47.436l42.008-47.436h52.864L1272.912,203.658z"/>
	</g>
	<g>
		<path class="st0" d="M1496.905,115.043c19.352,0,35.163,15.576,35.163,34.927v100.061c0,19.351-15.812,34.927-35.163,34.927
			h-134.752V115.043H1496.905z M1398.732,248.142h96.285v-96.284h-96.285V248.142z"/>
		<path class="st0" d="M1558.741,115.043h36.815v169.915h-36.815V115.043z"/>
		<path class="st0" d="M1763.108,115.043h37.995v169.915h-36.814V170.973c-19.116,22.655-39.647,47.67-58.526,69.854L1647,171.209
			v113.749h-36.578V115.043h37.759l57.582,68.674L1763.108,115.043z"/>
		<path class="st0" d="M1986.835,151.858h-119.884v29.735h96.521v36.815h-96.521v29.734h119.884v36.815H1829.9V115.043h156.935
			V151.858z"/>
	</g>
</g>
</svg>
