<?xml version="1.0" encoding="utf-8"?>
<!-- Generator: Adobe Illustrator 28.1.0, SVG Export Plug-In . SVG Version: 6.00 Build 0)  -->
<svg version="1.1"
	 id="svg5241" xmlns:dc="http://purl.org/dc/elements/1.1/" xmlns:inkscape="http://www.inkscape.org/namespaces/inkscape" xmlns:svg="http://www.w3.org/2000/svg" xmlns:sodipodi="http://sodipodi.sourceforge.net/DTD/sodipodi-0.dtd" xmlns:rdf="http://www.w3.org/1999/02/22-rdf-syntax-ns#" xmlns:cc="http://creativecommons.org/ns#" inkscape:export-xdpi="90"
	 xmlns="http://www.w3.org/2000/svg" xmlns:xlink="http://www.w3.org/1999/xlink" x="0px" y="0px" viewBox="0 0 2000 400"
	 style="enable-background:new 0 0 2000 400;" xml:space="preserve">
<style type="text/css">
	.st0{fill:#FFFFFF;}
</style>
<sodipodi:namedview  bordercolor="#666666" borderopacity="1.0" id="base" inkscape:current-layer="text5298" inkscape:cx="774.9861" inkscape:cy="86.360425" inkscape:document-units="px" inkscape:pageopacity="1" inkscape:pageshadow="2" inkscape:window-height="723" inkscape:window-maximized="0" inkscape:window-width="1366" inkscape:window-x="0" inkscape:window-y="26" inkscape:zoom="0.70710678" pagecolor="#32322a" showgrid="false">
	</sodipodi:namedview>
<g>
	<g>
		<path class="st0" d="M84.9,157.4l-5.4,27.8h73.4l-6.8,34.9H72.4l-5.9,30.2h86.6l-7.6,36.1H13.2l33-165.2h129.3l-7.3,36.1H84.9z"/>
		<path class="st0" d="M204.6,111.4h44.8l-34.9,175.1h-44.8L204.6,111.4z"/>
		<path class="st0" d="M385.6,233.6h-93.9c1.6,13.8,11.2,20.8,29,20.8c5.7,0,11.2-0.9,16.5-2.6c5.3-1.7,10.1-4.3,14.4-7.8l18.6,28.1
			c-14.9,11-33.1,16.5-54.5,16.5c-13.5,0-25.5-2.4-35.8-7.2c-10.3-4.8-18.3-11.6-23.8-20.3c-5.6-8.7-8.4-19-8.4-30.8
			c0-14,3.3-26.6,9.8-37.9c6.5-11.2,15.7-20.1,27.4-26.4c11.7-6.4,25.1-9.6,40.2-9.6c12.7,0,23.9,2.3,33.4,7
			c9.5,4.6,16.8,11.2,21.9,19.7c5.1,8.5,7.7,18.3,7.7,29.5C388.2,218.8,387.3,225.8,385.6,233.6z M304.9,194.1
			c-4.9,3.9-8.4,9.2-10.6,15.9h52.6c0.2-6.8-2-12.1-6.4-15.9c-4.4-3.9-10.2-5.8-17.5-5.8C315.8,188.3,309.7,190.2,304.9,194.1z"/>
		<path class="st0" d="M430.1,281.4c-10.1-4.8-18-11.6-23.6-20.4c-5.6-8.8-8.4-19-8.4-30.7c0-14,3.4-26.6,10.1-37.8
			c6.8-11.2,16.2-20,28.3-26.4c12.1-6.4,25.7-9.7,40.8-9.7c14.5,0,27,3,37.5,9.1c10.5,6.1,18.2,14.6,23.1,25.6l-38.2,18.2
			c-4.7-11.3-13-17-24.8-17c-9.1,0-16.6,3.3-22.5,9.9c-5.9,6.6-8.9,15.1-8.9,25.5c0,7.6,2.2,13.6,6.5,18.1
			c4.3,4.5,10.5,6.7,18.5,6.7c6,0,11.2-1.3,15.8-4c4.6-2.7,8.5-6.9,11.8-12.7l32.8,19.8c-6.1,10.4-14.8,18.5-25.8,24.3
			c-11.1,5.8-23.6,8.7-37.6,8.7C452,288.6,440.2,286.2,430.1,281.4z"/>
		<path class="st0" d="M597.7,238.8c-0.3,2.2-0.5,3.6-0.5,4.2c0,7.2,3.9,10.9,11.8,10.9c4.2,0,8.7-1.3,13.5-3.8l5.7,30.9
			c-8.8,5-19.9,7.6-33.3,7.6c-13.2,0-23.7-3.3-31.5-9.9c-7.8-6.6-11.7-15.8-11.7-27.6c0-4.6,0.4-8.6,1.2-12l8.5-42.2h-18.9l6.8-33.5
			H568l6.6-33.3h44.8l-6.6,33.3h29l-6.6,33.5h-29L597.7,238.8z"/>
		<path class="st0" d="M755.1,156.5l-7.8,40.4c-3.9-0.5-7.3-0.7-10.1-0.7c-10.1,0-18.1,2.4-24.2,7.2c-6.1,4.8-10.1,12.4-12.2,22.8
			l-12.3,60.4h-44.8l25.5-127.9h42.5l-2.8,14.2C719.6,161.9,735,156.5,755.1,156.5z"/>
		<path class="st0" d="M908.3,158.6l-25.5,127.9h-42.5l2.6-13.2c-5.5,5.2-11.7,9-18.5,11.6c-6.8,2.5-13.9,3.8-21.1,3.8
			c-14,0-25.1-3.8-33.4-11.3c-8.3-7.6-12.4-18.3-12.4-32.3c0-5.2,0.5-10.5,1.7-15.8l14.2-70.6h44.8l-13.2,66.3
			c-0.6,3-0.9,5.9-0.9,8.7c0,11.2,5.7,16.8,17.2,16.8c7.7,0,14.1-2.4,19.1-7.2c5-4.8,8.5-11.9,10.4-21.4l12.7-63.2H908.3z"/>
		<path class="st0" d="M1133.2,167.8c8.2,7.6,12.3,18.3,12.3,32.1c0,5.2-0.6,10.5-1.7,15.8l-13.9,70.8h-44.8l13.2-66.1
			c0.6-3,0.9-6,0.9-9c0-5.7-1.4-9.9-4.1-12.7c-2.8-2.8-6.7-4.2-11.9-4.2c-14.3,0-23.4,9.2-27.1,27.6l-13,64.4h-44.8l13.5-66.1
			c0.6-2.7,0.9-5.6,0.9-8.7c0-5.7-1.4-9.9-4.1-12.9c-2.8-2.9-6.7-4.4-11.9-4.4c-14.5,0-23.6,9.4-27.4,28.1l-12.7,64h-44.8
			l25.5-127.9h42.5l-2.6,13c10.5-10.1,23.3-15.1,38.2-15.1c8.5,0,16.1,1.8,22.9,5.3c6.8,3.5,12,8.7,15.6,15.5
			c6-6.8,12.9-11.9,20.9-15.5c7.9-3.5,16.6-5.3,26.1-5.3C1114.2,156.5,1125,160.2,1133.2,167.8z"/>
		<path class="st0" d="M1272.9,203.7l44.8,82.8h-50.5l-25-49.6l-43.2,49.6h-55.9l78.6-85.4l-42.2-79.8h49.8l24.1,47.4l42-47.4h52.9
			L1272.9,203.7z"/>
	</g>
	<g>
		<path class="st0" d="M1496.9,115c19.4,0,35.2,15.6,35.2,34.9V250c0,19.4-15.8,34.9-35.2,34.9h-134.8V115H1496.9z M1398.7,248.1
			h96.3v-96.3h-96.3V248.1z"/>
		<path class="st0" d="M1558.7,115h36.8V285h-36.8V115z"/>
		<path class="st0" d="M1763.1,115h38V285h-36.8V171c-19.1,22.7-39.6,47.7-58.5,69.9l-58.8-69.6V285h-36.6V115h37.8l57.6,68.7
			L1763.1,115z"/>
		<path class="st0" d="M1986.8,151.9H1867v29.7h96.5v36.8H1867v29.7h119.9V285h-156.9V115h156.9V151.9z"/>
	</g>
</g>
</svg>
